<svg width="264" height="213" viewBox="0 0 264 213" fill="none" xmlns="http://www.w3.org/2000/svg">
  <path d="M262.936 139.974C262.397 137.835 261.275 135.913 259.57 134.209C255.935 130.548 250.865 127.43 245.121 126.415C243.236 126.197 241.396 125.98 239.512 125.726C238.659 125.69 237.807 125.726 236.954 125.762C237.941 124.348 238.928 122.898 239.826 121.448C242.698 116.844 244.807 112.095 246.781 107.164C247.275 104.409 246.826 101.726 245.435 99.1887C243.909 96.3972 241.755 94.0408 238.839 92.0831C235.742 89.9804 232.197 88.494 228.249 87.624C225.422 87.0077 222.595 86.8264 219.723 87.0439L230.582 77.328C231.569 76.2404 232.556 75.1891 233.544 74.1015C234.845 72.2526 235.339 70.3312 235.114 68.301C235.339 66.9234 235.114 65.582 234.441 64.3131C233.903 62.1742 232.781 60.2528 231.076 58.5489C228.608 56.0837 225.601 54.0897 222.191 52.4946C219.543 51.2982 216.761 50.5732 213.799 50.3919C211.107 49.8844 208.37 49.8844 205.633 50.4282C205.588 50.4282 205.498 50.4644 205.453 50.4644C205.677 50.2831 205.902 50.1381 206.126 49.9569C216.178 42.5612 226.095 35.0205 235.653 27.2261C237.627 25.8122 238.884 24.1083 239.422 22.1144C240.454 20.2292 240.723 18.2716 240.23 16.2051C239.781 14.8638 239.332 13.5586 238.839 12.2173C237.807 10.1146 236.281 8.30192 234.217 6.77929C233.005 5.51043 231.524 4.49534 229.774 3.77027C227.396 2.24764 224.704 1.23255 221.697 0.652496C219.812 0.434977 217.973 0.217458 216.088 -0.0363149C212.498 -0.145075 209.088 0.434977 205.902 1.70384C190.241 7.14182 175.792 14.61 161.657 22.2594C157.394 24.5434 153.176 26.8998 148.958 29.2563C149.586 28.8212 150.214 28.35 150.842 27.9149C151.83 26.8273 152.817 25.776 153.804 24.6884C155.105 22.8395 155.599 20.918 155.375 18.8879C155.599 17.5102 155.375 16.1689 154.701 14.9C154.163 12.7611 153.041 10.8396 151.336 9.13575C148.868 6.67053 145.861 4.6766 142.451 3.08146C139.804 1.88511 137.021 1.16004 134.06 0.978775C131.367 0.47123 128.63 0.47123 125.893 1.01503C116.425 3.04521 107.091 5.54668 97.9369 8.41068C90.2636 10.8034 82.7698 13.5586 75.4554 16.6402C68.0962 19.7217 60.9614 23.1657 54.0958 26.8998C46.0186 31.2865 38.0761 35.9631 30.6271 41.0386C23.5372 45.8603 16.8511 51.0445 10.5239 56.5912C8.54951 58.0051 7.29307 59.709 6.75459 61.7029C5.7225 63.5881 5.45327 65.5458 5.94687 67.6122C6.26098 69.7874 7.15845 71.745 8.68413 73.4852C9.89571 75.5516 11.6458 77.2918 13.9343 78.7057C15.5946 79.612 17.2549 80.5183 18.9152 81.4247C22.4153 82.911 26.1398 83.7449 30.1335 83.8536C31.7041 83.8536 33.3195 83.7449 34.9349 83.5273C29.8194 90.1617 24.9731 96.941 20.4409 103.865C14.4728 112.929 9.04312 122.173 4.10707 131.635C3.47885 132.795 2.89549 133.992 2.31214 135.152C1.01082 137.001 0.517217 138.922 0.741582 140.952C0.472343 143.019 0.965948 145.013 2.08778 146.934C2.98524 148.203 3.8827 149.436 4.78017 150.705C6.48535 152.662 8.59439 154.221 11.1522 155.381C12.7227 156.433 14.4728 157.194 16.4472 157.629C19.0947 158.644 21.8768 159.188 24.8385 159.188C29.7745 159.152 35.608 158.318 39.0633 155.164C40.0954 154.221 41.1274 153.315 42.1595 152.372C42.1595 152.445 42.1595 152.517 42.1595 152.553C41.8903 154.62 42.3839 156.614 43.5057 158.535C44.4032 159.804 45.3006 161.037 46.1981 162.306C47.9033 164.263 50.0123 165.822 52.5701 166.982C54.1407 168.034 55.8907 168.795 57.8651 169.23C60.5126 170.245 63.2948 170.789 66.2564 170.789C71.2373 170.753 76.9811 169.882 80.4812 166.765C84.1159 163.538 87.8404 160.312 91.6098 157.158C91.7444 158.572 92.1931 159.949 93.0008 161.29C93.8983 162.559 94.7958 163.792 95.6932 165.061C97.3984 167.018 99.5074 168.577 102.065 169.737C103.636 170.789 105.386 171.55 107.36 171.985C110.008 173 112.79 173.544 115.752 173.544C117.546 173.435 119.341 173.29 121.091 173.182C124.502 172.638 127.463 171.405 129.976 169.52C134.284 166.946 138.637 164.408 142.99 161.907C149.676 158.136 156.407 154.439 163.182 150.813C159.054 156.215 155.016 161.689 151.067 167.2C146.041 174.305 141.195 181.484 136.528 188.77C135.227 190.619 134.733 192.541 134.957 194.571C134.688 196.637 135.182 198.631 136.303 200.553C137.201 201.822 138.098 203.054 138.996 204.323C140.701 206.281 142.81 207.84 145.368 209C146.938 210.051 148.688 210.812 150.663 211.247C153.31 212.262 156.093 212.806 159.054 212.806C164.08 212.77 169.644 211.864 173.279 208.782C190.914 193.81 210.928 180.903 231.569 168.722C236.685 165.713 241.845 162.741 247.006 159.768C249.608 158.281 252.211 156.831 254.769 155.345C257.147 154.475 258.987 153.17 260.288 151.43C262.038 149.907 263.025 148.131 263.339 146.028C264.057 143.889 263.833 141.895 262.936 139.974Z" fill="black"/>
</svg>
